#!OML:ASF C:\Vicon Data\Big\jianyuan-13\jianyuan\Session 1\Capture.male.ASF
:FULLY-SPECIFIED
:DEGREES
153
root -7.159210 17.590442 -12.400554 5.155657 2.211775 0.943904
lowerback -15.710323 1.805471 -1.928197 
upperback 0.811890 2.941940 -1.019659 
thorax 9.678909 1.370578 0.692897 
lowerneck -5.560305 -2.038226 3.721217 
upperneck 10.765471 -2.930725 -3.831050 
head 4.457501 -1.583385 -2.141759 
rclavicle 0.000000 0.000000 
rhumerus -39.240163 -14.596572 -80.966450 
rradius 37.667921 
rwrist 23.897281 
rhand -18.550525 -19.493672 
rfingers 0.000000 
rthumb 7.739002 -49.332042 
lclavicle 0.000000 0.000000 
lhumerus -52.491487 42.695422 55.472263 
lradius 23.022705 
lwrist -69.942198 
lhand -19.105701 -0.278956 
lfingers 0.000000 
lthumb 7.203130 29.578475 
rfemur -0.113924 1.992779 21.627406 
rtibia 35.205596 
rfoot -12.449810 -0.033369 
rtoes -30.692973 
lfemur -25.842820 -0.737385 -21.409392 
ltibia 19.453247 
lfoot -6.740901 7.331989 
ltoes -25.565164 
154
root -7.121345 17.603223 -12.286224 5.183042 2.358848 0.984260
lowerback -15.885210 1.700267 -2.152382 
upperback 0.676839 2.852742 -0.993431 
thorax 9.619896 1.321052 0.831100 
lowerneck -5.552401 -2.031865 3.743858 
upperneck 11.507690 -2.913820 -3.998086 
head 4.233020 -1.607735 -1.997286 
rclavicle 0.000000 0.000000 
rhumerus -39.406938 -14.300320 -80.911651 
rradius 37.504527 
rwrist 23.990448 
rhand -18.376580 -19.335102 
rfingers 0.000000 
rthumb 7.906893 -49.167216 
lclavicle 0.000000 0.000000 
lhumerus -52.630078 42.588689 55.478551 
lradius 23.035586 
lwrist -69.999550 
lhand -18.973648 -0.351957 
lfingers 0.000000 
lthumb 7.330605 29.501032 
rfemur -0.952908 1.019551 21.168115 
rtibia 37.110024 
rfoot -10.760361 0.584655 
rtoes -30.139917 
lfemur -25.523479 -0.513667 -21.682427 
ltibia 19.637938 
lfoot -7.048459 6.692691 
ltoes -26.834973 
155
root -7.085858 17.611857 -12.178349 5.052874 2.556427 1.196459
lowerback -15.778831 1.403692 -2.541181 
upperback 0.445770 2.559101 -1.178537 
thorax 9.305553 1.181828 0.775699 
lowerneck -5.202516 -1.874549 4.410845 
upperneck 11.883904 -2.769003 -4.150046 
head 4.283346 -1.528724 -2.147580 
rclavicle 0.000000 0.000000 
rhumerus -39.747021 -14.178968 -81.221752 
rradius 37.340680 
rwrist 24.446459 
rhand -18.583427 -19.254837 
rfingers 0.000000 
rthumb 7.707233 -49.094428 
lclavicle 0.000000 0.000000 
lhumerus -52.893128 42.125184 55.175258 
lradius 23.089888 
lwrist -69.114481 
lhand -19.215535 -0.337399 
lfingers 0.000000 
lthumb 7.097114 29.523651 
rfemur -1.776341 -0.097008 20.510593 
rtibia 39.244947 
rfoot -8.991887 1.164189 
rtoes -29.099277 
lfemur -24.954780 -0.020780 -22.196915 
ltibia 19.614876 
lfoot -7.133451 5.717424 
ltoes -27.485047 
156
root -7.051009 17.616931 -12.065021 4.987360 2.694136 1.415833
lowerback -15.957241 1.362302 -2.937387 
upperback 0.453486 2.585834 -1.144632 
thorax 9.396559 1.174059 1.048316 
lowerneck -5.446910 -1.970993 3.909096 
upperneck 12.259198 -2.902198 -3.866834 
head 4.445466 -1.606692 -1.995024 
rclavicle 0.000000 0.000000 
rhumerus -39.769651 -14.209200 -80.870707 
rradius 37.190252 
rwrist 24.812278 
rhand -18.481000 -19.091188 
rfingers 0.000000 
rthumb 7.806104 -48.927126 
lclavicle 0.000000 0.000000 
lhumerus -52.826865 42.262033 55.414600 
lradius 23.102968 
lwrist -69.595876 
lhand -19.001660 -0.225941 
lfingers 0.000000 
lthumb 7.303577 29.628031 
rfemur -2.731128 -1.328883 19.761400 
rtibia 41.496149 
rfoot -7.199362 1.824884 
rtoes -28.219458 
lfemur -24.356268 0.446466 -22.768862 
ltibia 19.488624 
lfoot -7.158730 5.002502 
ltoes -30.430401 
157
root -7.018011 17.621676 -11.966770 4.793370 2.896532 1.655681
lowerback -15.743899 1.102271 -3.334507 
upperback 0.271664 2.335642 -1.332299 
thorax 9.078602 1.056282 1.004125 
lowerneck -5.072981 -1.872290 4.376365 
upperneck 12.461331 -2.826954 -3.886246 
head 4.440921 -1.559445 -2.072102 
rclavicle 0.000000 0.000000 
rhumerus -40.082456 -13.954331 -81.291097 
rradius 37.158692 
rwrist 24.381780 
rhand -18.864504 -19.202159 
rfingers 0.000000 
rthumb 7.435963 -49.051427 
lclavicle 0.000000 0.000000 
lhumerus -53.108547 42.077297 54.934052 
lradius 23.126145 
lwrist -69.405195 
lhand -19.136601 -0.408772 
lfingers 0.000000 
lthumb 7.173308 29.449624 
rfemur -3.679538 -2.606212 19.024931 
rtibia 43.824821 
rfoot -5.404414 2.414322 
rtoes -27.959668 
lfemur -23.728709 0.536383 -23.179230 
ltibia 19.464548 
lfoot -7.483153 4.475639 
ltoes -30.637536 
158
root -6.984105 17.628792 -11.867814 4.685189 3.043240 1.861245
lowerback -15.773600 1.108870 -3.699227 
upperback 0.295755 2.408583 -1.272572 
thorax 9.102419 1.072029 1.292135 
lowerneck -5.429551 -1.982279 4.079443 
upperneck 12.869280 -2.960806 -3.951288 
head 4.623073 -1.649098 -2.062862 
rclavicle 0.000000 0.000000 
rhumerus -40.159006 -14.634989 -80.542281 
rradius 37.140510 
rwrist 25.162435 
rhand -18.395419 -19.019766 
rfingers 0.000000 
rthumb 7.888677 -48.852585 
lclavicle 0.000000 0.000000 
lhumerus -52.894133 42.269987 55.304760 
lradius 23.031978 
lwrist -69.967043 
lhand -19.146525 -0.340037 
lfingers 0.000000 
lthumb 7.163709 29.518672 
rfemur -4.797303 -3.897710 18.294372 
rtibia 46.259027 
rfoot -3.795595 2.991737 
rtoes -28.735428 
lfemur -23.221999 0.604949 -23.531348 
ltibia 19.502814 
lfoot -7.834072 3.986516 
ltoes -30.253344 
159
root -6.954251 17.635493 -11.777668 4.642919 3.259321 1.866734
lowerback -15.792878 0.944054 -3.923782 
upperback 0.216179 2.234471 -1.253333 
thorax 9.025598 0.983133 1.399626 
lowerneck -5.404633 -1.969278 4.163020 
upperneck 13.047650 -2.954355 -4.026330 
head 4.671271 -1.652048 -2.102462 
rclavicle 0.000000 0.000000 
rhumerus -40.273176 -14.703085 -80.501387 
rradius 37.127686 
rwrist 24.948726 
rhand -18.527589 -19.082993 
rfingers 0.000000 
rthumb 7.761130 -48.920598 
lclavicle 0.000000 0.000000 
lhumerus -52.877611 42.284732 55.308857 
lradius 23.158928 
lwrist -70.219272 
lhand -18.984430 -0.460611 
lfingers 0.000000 
lthumb 7.320205 29.392679 
rfemur -6.140594 -5.120758 17.884417 
rtibia 48.851047 
rfoot -2.287641 3.388912 
rtoes -30.470020 
lfemur -22.797823 0.723506 -23.676062 
ltibia 19.389507 
lfoot -7.915925 3.514948 
ltoes -30.300094 
160
root -6.919192 17.643413 -11.690171 4.431504 3.193889 2.478228
lowerback -15.592966 0.830859 -4.579406 
upperback 0.178025 2.229289 -1.484039 
thorax 8.858762 0.968271 1.514773 
lowerneck -5.167708 -1.948487 4.293380 
upperneck 13.014110 -2.948421 -3.955703 
head 4.620859 -1.640889 -2.097589 
rclavicle 0.000000 0.000000 
rhumerus -40.414450 -14.868039 -80.516372 
rradius 37.057174 
rwrist 24.885194 
rhand -18.848670 -19.125441 
rfingers 0.000000 
rthumb 7.451209 -48.974251 
lclavicle 0.000000 0.000000 
lhumerus -52.632064 42.164124 55.398550 
lradius 23.036977 
lwrist -70.116579 
lhand -19.169512 -0.508333 
lfingers 0.000000 
lthumb 7.141553 29.351177 
rfemur -7.358228 -6.168460 16.674087 
rtibia 51.539499 
rfoot -0.944725 3.812060 
rtoes -32.009950 
lfemur -22.088648 0.681614 -24.447668 
ltibia 19.258103 
lfoot -8.140691 3.369093 
ltoes -30.220880 
161
root -6.887905 17.646989 -11.610389 4.368007 3.360755 2.509963
lowerback -15.566008 0.756090 -4.724563 
upperback 0.160183 2.160006 -1.507697 
thorax 8.824276 0.931861 1.554909 
lowerneck -5.247363 -1.990190 4.278426 
upperneck 13.143897 -3.013410 -3.937690 
head 4.671929 -1.674937 -2.096529 
rclavicle 0.000000 0.000000 
rhumerus -40.495719 -15.226703 -80.352132 
rradius 37.129713 
rwrist 25.028874 
rhand -18.844269 -19.343669 
rfingers 0.000000 
rthumb 7.455454 -49.192229 
lclavicle 0.000000 0.000000 
lhumerus -52.370483 42.303972 55.477682 
lradius 23.005370 
lwrist -70.617769 
lhand -19.189018 -0.528007 
lfingers 0.000000 
lthumb 7.122687 29.332158 
rfemur -8.855518 -7.343240 16.232121 
rtibia 54.252415 
rfoot 0.450690 4.013989 
rtoes -34.164412 
lfemur -21.689385 0.900511 -24.652620 
ltibia 19.153934 
lfoot -8.111362 2.914457 
ltoes -30.197994 
